<svg width="1376" height="337" viewBox="0 0 1376 337" fill="none" xmlns="http://www.w3.org/2000/svg">
<g clip-path="url(#clip0_4406_355)">
<path d="M0 0H70.5025L102.881 229.749L135.156 0H205.763L154.792 337H50.9707L0 0Z" fill="black"/>
<path d="M223.52 0H414.555V68.6114H294.022V134.299H399.932V202.806H294.022V268.389H414.555V337H223.52V0Z" fill="black"/>
<path d="M439.203 0H526.835C595.875 0 630.239 44.5922 630.239 95.0325V241.967C630.239 292.408 595.875 337 526.835 337H439.203V0ZM506.781 270.373H520.464C561.616 270.373 562.243 237.059 562.243 223.379V113.621C562.243 99.9408 561.199 66.6272 520.464 66.6272H506.781V270.373Z" fill="black"/>
<path d="M654.891 0H742.523C811.563 0 846.031 44.5922 846.031 95.0325V241.967C846.031 292.408 811.667 337 742.627 337H654.891V0ZM722.469 270.373H736.151C777.304 270.373 777.931 237.059 777.931 223.379V113.621C777.931 99.9408 776.886 66.6272 736.151 66.6272H722.469V270.373Z" fill="black"/>
<path d="M870.473 0H1061.61V68.6114H941.08V134.299H1046.89V202.806H941.08V268.389H1061.61V337H870.473V0Z" fill="black"/>
<path d="M1234.16 194.033C1257.14 178.786 1275.94 152.887 1275.94 104.327C1275.94 55.7663 1248.99 -0.104492 1177.97 -0.104492H1082.92V337H1151.54V208.863H1166.16L1211.6 337H1284.71L1234.16 194.033ZM1171.49 140.982C1164.19 141.086 1157.02 139.013 1150.9 135.028C1144.78 131.043 1139.99 125.326 1137.13 118.607C1134.28 111.888 1133.49 104.47 1134.86 97.2991C1136.24 90.1285 1139.72 83.5301 1144.86 78.3451C1150 73.1601 1156.57 69.6234 1163.73 68.1858C1170.89 66.7483 1178.31 67.4751 1185.06 70.2735C1191.8 73.0719 1197.56 77.8152 1201.6 83.8986C1205.64 89.9821 1207.77 97.1301 1207.73 104.431C1207.72 109.245 1206.76 114.009 1204.9 118.451C1203.05 122.893 1200.34 126.926 1196.92 130.32C1193.51 133.714 1189.46 136.403 1185.01 138.232C1180.55 140.061 1175.78 140.996 1170.97 140.982H1171.49Z" fill="black"/>
<path d="M1300.49 42.9086C1300.22 37.7839 1300.99 32.658 1302.77 27.8431C1304.54 23.0283 1307.28 18.6253 1310.81 14.9025C1314.35 11.1796 1318.6 8.21493 1323.32 6.18896C1328.03 4.16298 1333.11 3.11816 1338.24 3.11816C1343.38 3.11816 1348.46 4.16298 1353.17 6.18896C1357.89 8.21493 1362.14 11.1796 1365.67 14.9025C1369.21 18.6253 1371.94 23.0283 1373.72 27.8431C1375.49 32.658 1376.27 37.7839 1376 42.9086C1376.27 48.0333 1375.49 53.1592 1373.72 57.974C1371.94 62.7889 1369.21 67.1919 1365.67 70.9147C1362.14 74.6375 1357.89 77.6022 1353.17 79.6282C1348.46 81.6542 1343.38 82.699 1338.24 82.699C1333.11 82.699 1328.03 81.6542 1323.32 79.6282C1318.6 77.6022 1314.35 74.6375 1310.81 70.9147C1307.28 67.1919 1304.54 62.7889 1302.77 57.974C1300.99 53.1592 1300.22 48.0333 1300.49 42.9086ZM1368.38 42.9086C1368.62 38.8029 1368.02 34.691 1366.61 30.8255C1365.21 26.96 1363.03 23.4225 1360.21 20.43C1357.38 17.4375 1353.98 15.0532 1350.2 13.4236C1346.43 11.794 1342.36 10.9533 1338.24 10.9533C1334.13 10.9533 1330.06 11.794 1326.28 13.4236C1322.51 15.0532 1319.1 17.4375 1316.28 20.43C1313.46 23.4225 1311.28 26.96 1309.87 30.8255C1308.47 34.691 1307.87 38.8029 1308.11 42.9086C1307.87 47.0143 1308.47 51.1261 1309.87 54.9916C1311.28 58.8571 1313.46 62.3947 1316.28 65.3872C1319.1 68.3797 1322.51 70.7639 1326.28 72.3936C1330.06 74.0232 1334.13 74.8638 1338.24 74.8638C1342.36 74.8638 1346.43 74.0232 1350.2 72.3936C1353.98 70.7639 1357.38 68.3797 1360.21 65.3872C1363.03 62.3947 1365.21 58.8571 1366.61 54.9916C1368.02 51.1261 1368.62 47.0143 1368.38 42.9086ZM1321.58 22.0223H1343.31C1351.77 22.0223 1356.89 26.4084 1356.89 33.5098C1357.04 35.7237 1356.49 37.9295 1355.31 39.8073C1354.12 41.6851 1352.37 43.1372 1350.31 43.9529C1351.93 44.4333 1353.34 45.4715 1354.27 46.8849C1355.21 48.2984 1355.62 49.9965 1355.43 51.6808C1355.17 55.7817 1355.7 59.8934 1356.99 63.7948H1347.38C1346.11 60.0344 1345.61 56.056 1345.92 52.0985C1345.92 48.5479 1344.46 47.2947 1341.22 47.2947H1330.78V63.2727H1321.58V22.0223ZM1330.78 29.0192V39.8801H1341.22C1345.09 39.8801 1347.28 38.1047 1347.28 34.3452C1347.28 30.5857 1345.09 28.8103 1341.22 28.8103L1330.78 29.0192Z" fill="black"/>
</g>
<defs>
<clipPath id="clip0_4406_355">
<rect width="1376" height="337" fill="white"/>
</clipPath>
</defs>
</svg>
